<svg width="17" height="13" viewBox="0 0 17 13" fill="none" xmlns="http://www.w3.org/2000/svg">
<path d="M13.19 7.52558L9.89498 10.8206C9.70774 11.0085 9.60281 11.2631 9.60328 11.5284C9.60375 11.7936 9.70957 12.0478 9.89748 12.2351C10.0854 12.4223 10.34 12.5273 10.6052 12.5268C10.8705 12.5263 11.1247 12.4205 11.312 12.2326L16.292 7.25258C16.3891 7.16136 16.4669 7.0516 16.5209 6.92979C16.5749 6.80797 16.6039 6.67658 16.6062 6.54336C16.6085 6.41015 16.5841 6.27782 16.5345 6.15419C16.4848 6.03056 16.4108 5.91815 16.317 5.82358L11.312 0.818585C11.1234 0.636426 10.8708 0.535632 10.6086 0.53791C10.3464 0.540189 10.0956 0.645358 9.91016 0.830766C9.72475 1.01617 9.61959 1.26699 9.61731 1.52918C9.61503 1.79138 9.71582 2.04398 9.89798 2.23258L13.191 5.52558H1.60498C1.33976 5.52558 1.08541 5.63094 0.897874 5.81848C0.710338 6.00601 0.60498 6.26037 0.60498 6.52558C0.60498 6.7908 0.710338 7.04515 0.897874 7.23269C1.08541 7.42023 1.33976 7.52558 1.60498 7.52558H13.19Z" fill="#928B80"/>
</svg>
