<svg width="25" height="25" viewBox="0 0 25 25" fill="none" xmlns="http://www.w3.org/2000/svg">
<g id="gnav-cart">
<path id="Vector" d="M10.2446 18.6956C10.5761 18.6956 10.8941 18.8273 11.1285 19.0617C11.3629 19.2961 11.4946 19.614 11.4946 19.9456C11.4946 20.2771 11.3629 20.595 11.1285 20.8294C10.8941 21.0639 10.5761 21.1956 10.2446 21.1956C9.91311 21.1956 9.59517 21.0639 9.36075 20.8294C9.12633 20.595 8.99463 20.2771 8.99463 19.9456C8.99463 19.614 9.12633 19.2961 9.36075 19.0617C9.59517 18.8273 9.91311 18.6956 10.2446 18.6956ZM17.7446 18.6956C18.0761 18.6956 18.3941 18.8273 18.6285 19.0617C18.8629 19.2961 18.9946 19.614 18.9946 19.9456C18.9946 20.2771 18.8629 20.595 18.6285 20.8294C18.3941 21.0639 18.0761 21.1956 17.7446 21.1956C17.4131 21.1956 17.0952 21.0639 16.8607 20.8294C16.6263 20.595 16.4946 20.2771 16.4946 19.9456C16.4946 19.614 16.6263 19.2961 16.8607 19.0617C17.0952 18.8273 17.4131 18.6956 17.7446 18.6956ZM6.99463 3.19556C7.31163 3.19556 7.59463 3.34256 7.77663 3.57256C7.86163 3.67756 7.92663 3.80256 7.96363 3.94156L8.56763 6.19556H20.9946C21.198 6.19556 21.3966 6.25758 21.5638 6.37336C21.7311 6.48914 21.859 6.65317 21.9306 6.84356C22.0036 7.03356 22.0196 7.24756 21.9626 7.45956L20.3556 13.4576C20.295 13.6838 20.1569 13.8817 19.9654 14.0165C19.7739 14.1514 19.5411 14.2148 19.3076 14.1956H10.1626L9.76063 15.6956H18.9946C19.2598 15.6956 19.5142 15.8009 19.7017 15.9885C19.8893 16.176 19.9946 16.4303 19.9946 16.6956C19.9946 16.9608 19.8893 17.2151 19.7017 17.4027C19.5142 17.5902 19.2598 17.6956 18.9946 17.6956H8.46463C8.28973 17.6955 8.1179 17.6496 7.96629 17.5624C7.81469 17.4752 7.6886 17.3497 7.60063 17.1986C7.53213 17.0839 7.48737 16.9567 7.46899 16.8244C7.45061 16.6921 7.45899 16.5575 7.49363 16.4286L8.36663 13.1706L6.23063 5.19556H4.99463C4.72941 5.19556 4.47506 5.0902 4.28752 4.90266C4.09999 4.71513 3.99463 4.46077 3.99463 4.19556C3.99463 3.93034 4.09999 3.67599 4.28752 3.48845C4.47506 3.30091 4.72941 3.19556 4.99463 3.19556H6.99463ZM19.6946 8.19556H9.10463L10.1756 12.1956H18.6226L19.6946 8.19556Z" fill="#4E4D49"/>
</g>
</svg>
