<svg width="21" height="17" viewBox="0 0 21 17" fill="none" xmlns="http://www.w3.org/2000/svg">
<path d="M19.7451 0.925781C20.0103 0.925781 20.2647 1.03114 20.4522 1.21867C20.6398 1.40621 20.7451 1.66056 20.7451 1.92578V12.9258C20.7451 13.191 20.6398 13.4454 20.4522 13.6329C20.2647 13.8204 20.0103 13.9258 19.7451 13.9258H17.7431V15.9258C17.7432 16.1153 17.6894 16.301 17.588 16.4611C17.4865 16.6212 17.3416 16.7491 17.1702 16.83C16.9988 16.9108 16.8079 16.9412 16.6198 16.9176C16.4318 16.894 16.2543 16.8174 16.1081 16.6968L12.7451 13.9258H1.74512C1.4799 13.9258 1.22555 13.8204 1.03801 13.6329C0.850474 13.4454 0.745117 13.191 0.745117 12.9258V1.92578C0.745117 1.66056 0.850474 1.40621 1.03801 1.21867C1.22555 1.03114 1.4799 0.925781 1.74512 0.925781H19.7451ZM18.7451 2.92578H2.74512V11.9258H13.4631L15.7431 13.8048V11.9258H18.7451V2.92578ZM11.2451 5.92578C11.6429 5.92578 12.0245 6.08382 12.3058 6.36512C12.5871 6.64643 12.7451 7.02796 12.7451 7.42578C12.7451 7.82361 12.5871 8.20514 12.3058 8.48644C12.0245 8.76775 11.6429 8.92578 11.2451 8.92578C10.8473 8.92578 10.4658 8.76775 10.1845 8.48644C9.90315 8.20514 9.74512 7.82361 9.74512 7.42578C9.74512 7.02796 9.90315 6.64643 10.1845 6.36512C10.4658 6.08382 10.8473 5.92578 11.2451 5.92578ZM7.24512 5.92578C7.64294 5.92578 8.02447 6.08382 8.30578 6.36512C8.58708 6.64643 8.74512 7.02796 8.74512 7.42578C8.74512 7.82361 8.58708 8.20514 8.30578 8.48644C8.02447 8.76775 7.64294 8.92578 7.24512 8.92578C6.84729 8.92578 6.46576 8.76775 6.18446 8.48644C5.90315 8.20514 5.74512 7.82361 5.74512 7.42578C5.74512 7.02796 5.90315 6.64643 6.18446 6.36512C6.46576 6.08382 6.84729 5.92578 7.24512 5.92578ZM15.2451 5.92578C15.6429 5.92578 16.0245 6.08382 16.3058 6.36512C16.5871 6.64643 16.7451 7.02796 16.7451 7.42578C16.7451 7.82361 16.5871 8.20514 16.3058 8.48644C16.0245 8.76775 15.6429 8.92578 15.2451 8.92578C14.8473 8.92578 14.4658 8.76775 14.1845 8.48644C13.9032 8.20514 13.7451 7.82361 13.7451 7.42578C13.7451 7.02796 13.9032 6.64643 14.1845 6.36512C14.4658 6.08382 14.8473 5.92578 15.2451 5.92578Z" fill="#928B80"/>
</svg>