<svg width="25" height="20" viewBox="0 0 25 20" fill="none" xmlns="http://www.w3.org/2000/svg">
<path d="M21.625 0.925781C21.8902 0.925781 22.1446 1.03114 22.3321 1.21867C22.5196 1.40621 22.625 1.66056 22.625 1.92578V13.9258C22.625 14.191 22.5196 14.4454 22.3321 14.6329C22.1446 14.8204 21.8902 14.9258 21.625 14.9258H3.625C3.35978 14.9258 3.10543 14.8204 2.91789 14.6329C2.73036 14.4454 2.625 14.191 2.625 13.9258V1.92578C2.625 1.66056 2.73036 1.40621 2.91789 1.21867C3.10543 1.03114 3.35978 0.925781 3.625 0.925781H21.625ZM20.625 4.46178L13.142 8.78178C12.9889 8.87426 12.8137 8.92397 12.6349 8.92573C12.456 8.92749 12.2799 8.88123 12.125 8.79178L4.625 4.46178V12.9258H20.625V4.46178ZM19.283 2.92578H5.965L12.625 6.77078L19.283 2.92578Z" fill="#928B80"/>
</svg>
