<svg xmlns="http://www.w3.org/2000/svg" width="21" height="21" viewBox="0 0 21 21" fill="none">
  <path d="M10.605 20.5056C5.08198 20.5056 0.60498 16.0286 0.60498 10.5056C0.60498 4.98262 5.08198 0.505615 10.605 0.505615C16.128 0.505615 20.605 4.98262 20.605 10.5056C20.605 16.0286 16.128 20.5056 10.605 20.5056ZM15.375 7.14861C15.4594 7.04796 15.5232 6.93165 15.5627 6.80634C15.6022 6.68103 15.6166 6.54917 15.6051 6.41829C15.5937 6.2874 15.5565 6.16006 15.4959 6.04353C15.4352 5.92699 15.3521 5.82355 15.2515 5.73912C15.1508 5.65468 15.0345 5.59089 14.9092 5.5514C14.7839 5.5119 14.652 5.49748 14.5212 5.50895C14.3903 5.52042 14.2629 5.55755 14.1464 5.61823C14.0299 5.67892 13.9264 5.76196 13.842 5.86262L7.89198 12.9456L6.37198 11.1286C6.20158 10.9253 5.9574 10.7981 5.69316 10.7748C5.42892 10.7515 5.16627 10.8342 4.96298 11.0046C4.75969 11.175 4.63242 11.4192 4.60917 11.6834C4.58591 11.9477 4.66858 12.2103 4.83898 12.4136L7.06598 15.0736C7.15175 15.1978 7.26453 15.3009 7.39586 15.3752C7.52719 15.4496 7.67365 15.4932 7.82425 15.5028C7.97485 15.5124 8.12567 15.4878 8.2654 15.4308C8.40512 15.3738 8.53011 15.2859 8.63098 15.1736L15.374 7.14861H15.375Z" fill="#3B8349"/>
</svg>