<svg width="21" height="21" viewBox="0 0 21 21" fill="none" xmlns="http://www.w3.org/2000/svg">
<path d="M10.605 0.925781C16.128 0.925781 20.605 5.40278 20.605 10.9258C20.605 16.4488 16.128 20.9258 10.605 20.9258C5.08198 20.9258 0.60498 16.4488 0.60498 10.9258C0.60498 5.40278 5.08198 0.925781 10.605 0.925781ZM10.605 2.92578C8.48325 2.92578 6.44842 3.76864 4.94813 5.26893C3.44784 6.76922 2.60498 8.80405 2.60498 10.9258C2.60498 13.0475 3.44784 15.0823 4.94813 16.5826C6.44842 18.0829 8.48325 18.9258 10.605 18.9258C12.7267 18.9258 14.7615 18.0829 16.2618 16.5826C17.7621 15.0823 18.605 13.0475 18.605 10.9258C18.605 8.80405 17.7621 6.76922 16.2618 5.26893C14.7615 3.76864 12.7267 2.92578 10.605 2.92578ZM10.605 14.4258C10.9365 14.4258 11.2544 14.5575 11.4889 14.7919C11.7233 15.0263 11.855 15.3443 11.855 15.6758C11.855 16.0073 11.7233 16.3252 11.4889 16.5597C11.2544 16.7941 10.9365 16.9258 10.605 16.9258C10.2735 16.9258 9.95552 16.7941 9.7211 16.5597C9.48668 16.3252 9.35498 16.0073 9.35498 15.6758C9.35498 15.3443 9.48668 15.0263 9.7211 14.7919C9.95552 14.5575 10.2735 14.4258 10.605 14.4258ZM10.605 4.92578C11.5332 4.92578 12.4235 5.29453 13.0799 5.95091C13.7362 6.60729 14.105 7.49752 14.105 8.42578C14.105 10.2218 12.533 11.0118 12.3 11.1598C12.0874 11.2957 11.9124 11.4829 11.7909 11.7041C11.6695 11.9253 11.6056 12.1734 11.605 12.4258C11.6054 12.5571 11.58 12.6872 11.5302 12.8087C11.4804 12.9302 11.4071 13.0407 11.3146 13.1339C11.222 13.2271 11.112 13.3011 10.9909 13.3518C10.8697 13.4025 10.7398 13.4288 10.6085 13.4293C10.4772 13.4297 10.347 13.4043 10.2255 13.3545C10.104 13.3047 9.99353 13.2314 9.90035 13.1389C9.80717 13.0463 9.73312 12.9363 9.68244 12.8152C9.63176 12.694 9.60544 12.5641 9.60498 12.4328C9.60498 11.4728 9.98598 10.8068 10.605 10.1758C11.224 9.54478 12.105 9.24178 12.105 8.42578C12.105 8.02796 11.9469 7.64643 11.6656 7.36512C11.3843 7.08382 11.0028 6.92578 10.605 6.92578C10.2072 6.92578 9.82562 7.08382 9.54432 7.36512C9.26302 7.64643 9.10498 8.02796 9.10498 8.42578C9.10498 8.691 8.99962 8.94535 8.81209 9.13289C8.62455 9.32042 8.3702 9.42578 8.10498 9.42578C7.83976 9.42578 7.58541 9.32042 7.39787 9.13289C7.21034 8.94535 7.10498 8.691 7.10498 8.42578C7.10498 7.49752 7.47373 6.60729 8.13011 5.95091C8.78648 5.29453 9.67672 4.92578 10.605 4.92578Z" fill="#928B80"/>
</svg>