<svg width="25" height="25" viewBox="0 0 25 25" fill="none" xmlns="http://www.w3.org/2000/svg">
<path d="M17.7181 0.385742C19.4862 0.385742 21.1819 1.08812 22.4321 2.33836C23.6824 3.58861 24.3848 5.2843 24.3848 7.05241V17.7191C24.3848 19.4872 23.6824 21.1829 22.4321 22.4331C21.1819 23.6834 19.4862 24.3857 17.7181 24.3857H7.05143C5.28332 24.3857 3.58763 23.6834 2.33739 22.4331C1.08714 21.1829 0.384766 19.4872 0.384766 17.7191V7.05241C0.384766 5.2843 1.08714 3.58861 2.33739 2.33836C3.58763 1.08812 5.28332 0.385742 7.05143 0.385742H17.7181ZM17.7181 3.05241H7.05143C5.99057 3.05241 4.97315 3.47384 4.22301 4.22398C3.47286 4.97413 3.05143 5.99154 3.05143 7.05241V17.7191C3.05143 18.7799 3.47286 19.7974 4.22301 20.5475C4.97315 21.2976 5.99057 21.7191 7.05143 21.7191H17.7181C18.779 21.7191 19.7964 21.2976 20.5465 20.5475C21.2967 19.7974 21.7181 18.7799 21.7181 17.7191V7.05241C21.7181 5.99154 21.2967 4.97413 20.5465 4.22398C19.7964 3.47384 18.779 3.05241 17.7181 3.05241ZM12.3848 5.71908C14.1529 5.71908 15.8486 6.42145 17.0988 7.6717C18.3491 8.92194 19.0514 10.6176 19.0514 12.3857C19.0514 14.1539 18.3491 15.8495 17.0988 17.0998C15.8486 18.35 14.1529 19.0524 12.3848 19.0524C10.6167 19.0524 8.92096 18.35 7.67072 17.0998C6.42048 15.8495 5.7181 14.1539 5.7181 12.3857C5.7181 10.6176 6.42048 8.92194 7.67072 7.6717C8.92096 6.42145 10.6167 5.71908 12.3848 5.71908ZM12.3848 8.38574C11.3239 8.38574 10.3065 8.80717 9.55634 9.55731C8.80619 10.3075 8.38477 11.3249 8.38477 12.3857C8.38477 13.4466 8.80619 14.464 9.55634 15.2142C10.3065 15.9643 11.3239 16.3857 12.3848 16.3857C13.4456 16.3857 14.463 15.9643 15.2132 15.2142C15.9633 14.464 16.3848 13.4466 16.3848 12.3857C16.3848 11.3249 15.9633 10.3075 15.2132 9.55731C14.463 8.80717 13.4456 8.38574 12.3848 8.38574ZM18.7181 4.71908C19.0717 4.71908 19.4109 4.85955 19.6609 5.1096C19.911 5.35965 20.0514 5.69879 20.0514 6.05241C20.0514 6.40603 19.911 6.74517 19.6609 6.99522C19.4109 7.24527 19.0717 7.38574 18.7181 7.38574C18.3645 7.38574 18.0253 7.24527 17.7753 6.99522C17.5252 6.74517 17.3848 6.40603 17.3848 6.05241C17.3848 5.69879 17.5252 5.35965 17.7753 5.1096C18.0253 4.85955 18.3645 4.71908 18.7181 4.71908Z" fill="#928B80"/>
</svg>
