<svg width="20" height="27" viewBox="0 0 20 27" fill="none" xmlns="http://www.w3.org/2000/svg">
<path d="M16.8911 12.0522V10.7189C16.8911 10.3653 17.0316 10.0262 17.2816 9.7761C17.5317 9.52606 17.8708 9.38558 18.2244 9.38558C18.5781 9.38558 18.9172 9.52606 19.1673 9.7761C19.4173 10.0262 19.5578 10.3653 19.5578 10.7189V12.0522C19.5578 14.2969 18.7491 16.4663 17.2799 18.1633C15.8107 19.8602 13.7793 20.971 11.5578 21.2922V25.3856C11.5578 25.7392 11.4173 26.0783 11.1673 26.3284C10.9172 26.5784 10.5781 26.7189 10.2244 26.7189C9.87082 26.7189 9.53169 26.5784 9.28164 26.3284C9.03159 26.0783 8.89111 25.7392 8.89111 25.3856V21.2922C6.66961 20.971 4.6382 19.8602 3.16898 18.1633C1.69976 16.4663 0.891092 14.2969 0.891113 12.0522V10.7189C0.891113 10.3653 1.03159 10.0262 1.28164 9.7761C1.53169 9.52606 1.87082 9.38558 2.22445 9.38558C2.57807 9.38558 2.91721 9.52606 3.16726 9.7761C3.4173 10.0262 3.55778 10.3653 3.55778 10.7189V12.0522C3.55778 13.8204 4.26016 15.516 5.5104 16.7663C6.76064 18.0165 8.45634 18.7189 10.2244 18.7189C11.9926 18.7189 13.6882 18.0165 14.9385 16.7663C16.1887 15.516 16.8911 13.8204 16.8911 12.0522ZM4.89111 5.38558C4.89111 3.97109 5.45302 2.61454 6.45321 1.61434C7.4534 0.614149 8.80996 0.0522461 10.2244 0.0522461C11.6389 0.0522461 12.9955 0.614149 13.9957 1.61434C14.9959 2.61454 15.5578 3.97109 15.5578 5.38558V12.0522C15.5578 13.4667 14.9959 14.8233 13.9957 15.8235C12.9955 16.8237 11.6389 17.3856 10.2244 17.3856C8.80996 17.3856 7.4534 16.8237 6.45321 15.8235C5.45302 14.8233 4.89111 13.4667 4.89111 12.0522V5.38558Z" fill="#928B80"/>
</svg>
