<svg xmlns="http://www.w3.org/2000/svg" width="21" height="21" viewBox="0 0 21 21" fill="none">
  <path d="M10.605 20.6956C5.08198 20.6956 0.60498 16.2186 0.60498 10.6956C0.60498 5.17256 5.08198 0.695557 10.605 0.695557C16.128 0.695557 20.605 5.17256 20.605 10.6956C20.605 16.2186 16.128 20.6956 10.605 20.6956ZM10.605 18.6956C12.7267 18.6956 14.7615 17.8527 16.2618 16.3524C17.7621 14.8521 18.605 12.8173 18.605 10.6956C18.605 8.57382 17.7621 6.53899 16.2618 5.0387C14.7615 3.53841 12.7267 2.69556 10.605 2.69556C8.48325 2.69556 6.44842 3.53841 4.94813 5.0387C3.44784 6.53899 2.60498 8.57382 2.60498 10.6956C2.60498 12.8173 3.44784 14.8521 4.94813 16.3524C6.44842 17.8527 8.48325 18.6956 10.605 18.6956ZM6.60498 9.69556H14.605C14.8702 9.69556 15.1246 9.80091 15.3121 9.98845C15.4996 10.176 15.605 10.4303 15.605 10.6956C15.605 10.9608 15.4996 11.2151 15.3121 11.4027C15.1246 11.5902 14.8702 11.6956 14.605 11.6956H6.60498C6.33976 11.6956 6.08541 11.5902 5.89787 11.4027C5.71034 11.2151 5.60498 10.9608 5.60498 10.6956C5.60498 10.4303 5.71034 10.176 5.89787 9.98845C6.08541 9.80091 6.33976 9.69556 6.60498 9.69556Z" fill="#DCD6CB"/>
</svg>