<svg width="22" height="27" viewBox="0 0 22 27" fill="none" xmlns="http://www.w3.org/2000/svg">
<path d="M5.15066 20.3086L6.81199 13.4339C6.81199 13.4339 6.97999 12.6033 6.55066 11.8633C6.55066 11.8633 5.59332 9.50194 7.48399 7.49928C7.48399 7.49928 9.03199 5.76861 11.0133 7.07261C11.0133 7.07261 12.144 7.95128 11.688 9.61528L10.3427 13.7659C10.3427 13.7659 9.52132 16.9219 12.5627 17.1926C12.5627 17.1926 15.7733 17.6193 17.3227 13.3246C18.8707 9.02995 17.0693 6.29394 17.0693 6.29394C17.0693 6.29394 14.7533 2.27794 9.52266 3.12328C4.28932 3.96861 3.62799 8.89661 3.62799 8.89661C3.62799 8.89661 3.23466 11.9339 4.87599 14.1473L4.08932 16.7953C4.08932 16.7953 0.086656 14.2646 0.254656 9.71928C0.254656 9.71928 0.422655 2.14194 8.27199 0.315277C8.27199 0.315277 15.38 -1.45272 19.588 4.18728C21.9427 7.34194 21.7747 10.7766 21.2707 13.3246C20.7653 15.8713 18.86 17.5019 18.86 17.5019C18.86 17.5019 13.708 22.8993 9.22532 18.1366L8.27199 21.7673C8.27199 21.7673 7.15066 25.7006 5.63466 26.7193L4.93732 26.5433C4.93732 26.5433 4.59066 22.1606 5.15066 20.3086Z" fill="#928B80"/>
</svg>
