<svg width="19" height="19" viewBox="0 0 19 19" fill="none" xmlns="http://www.w3.org/2000/svg">
<path id="Vector" d="M9.66523 9.19567C10.5935 9.19567 11.4837 8.82693 12.1401 8.17055C12.7965 7.51417 13.1652 6.62393 13.1652 5.69567C13.1652 4.76742 12.7965 3.87718 12.1401 3.2208C11.4837 2.56442 10.5935 2.19567 9.66523 2.19567C8.73697 2.19567 7.84673 2.56442 7.19035 3.2208C6.53398 3.87718 6.16523 4.76742 6.16523 5.69567C6.16523 6.62393 6.53398 7.51417 7.19035 8.17055C7.84673 8.82693 8.73697 9.19567 9.66523 9.19567ZM16.4272 16.1957C15.9833 14.7486 15.0869 13.4821 13.8697 12.5823C12.6526 11.6825 11.1789 11.197 9.66523 11.197C8.15159 11.197 6.67788 11.6825 5.46071 12.5823C4.24355 13.4821 3.34713 14.7486 2.90323 16.1957H16.4272ZM1.66523 18.1957C1.40001 18.1957 1.14566 18.0903 0.95812 17.9028C0.770583 17.7152 0.665226 17.4609 0.665226 17.1957H0.657227C0.663425 17.1426 0.670092 17.0896 0.677227 17.0367C0.890992 15.478 1.50607 14.0016 2.46217 12.7523C3.41828 11.5029 4.6826 10.5233 6.13123 9.90967C5.26624 9.18433 4.6454 8.2104 4.35297 7.12008C4.06054 6.02975 4.1107 4.87586 4.49662 3.81502C4.88254 2.75418 5.58555 1.83778 6.5102 1.19023C7.43485 0.542667 8.53637 0.195312 9.66523 0.195312C10.7941 0.195312 11.8956 0.542667 12.8203 1.19023C13.7449 1.83778 14.4479 2.75418 14.8338 3.81502C15.2198 4.87586 15.2699 6.02975 14.9775 7.12008C14.6851 8.2104 14.0642 9.18433 13.1992 9.90967C14.6728 10.534 15.9552 11.5367 16.9165 12.8162C17.8778 14.0957 18.4838 15.6065 18.6732 17.1957H18.6652C18.6652 17.4609 18.5599 17.7152 18.3723 17.9028C18.1848 18.0903 17.9304 18.1957 17.6652 18.1957H1.66523Z" fill="#616161"/>
</svg>
