<svg width="25" height="25" viewBox="0 0 25 25" fill="none" xmlns="http://www.w3.org/2000/svg">
<g id="gnav-search">
<path id="Vector" d="M21.6923 19.4895C21.8745 19.6781 21.9753 19.9307 21.973 20.1929C21.9707 20.4551 21.8655 20.7059 21.6801 20.8913C21.4947 21.0767 21.2439 21.1819 20.9817 21.1842C20.7195 21.1865 20.4669 21.0857 20.2783 20.9035L16.0343 16.6585C14.5218 17.8124 12.6273 18.3483 10.7345 18.1579C8.84166 17.9674 7.09193 17.0648 5.83961 15.6327C4.58729 14.2007 3.92596 12.3462 3.98955 10.4449C4.05313 8.54357 4.83686 6.73745 6.18205 5.39226C7.52725 4.04707 9.33337 3.26333 11.2347 3.19975C13.136 3.13617 14.9905 3.7975 16.4225 5.04982C17.8546 6.30214 18.7572 8.05186 18.9477 9.94469C19.1381 11.8375 18.6022 13.732 17.4483 15.2445L21.6923 19.4895ZM11.4853 16.1955C12.944 16.1955 14.343 15.6161 15.3744 14.5846C16.4059 13.5532 16.9853 12.1542 16.9853 10.6955C16.9853 9.23683 16.4059 7.83789 15.3744 6.80644C14.343 5.77499 12.944 5.19552 11.4853 5.19552C10.0266 5.19552 8.62768 5.77499 7.59623 6.80644C6.56478 7.83789 5.98532 9.23683 5.98532 10.6955C5.98532 12.1542 6.56478 13.5532 7.59623 14.5846C8.62768 15.6161 10.0266 16.1955 11.4853 16.1955Z" fill="#4E4D49"/>
</g>
</svg>
