<svg width="21" height="21" viewBox="0 0 21 21" fill="none" xmlns="http://www.w3.org/2000/svg">
<path d="M17.8592 0.934665L17.9157 0.927684L17.9648 0.925781L18.0422 0.930527L18.1623 0.957633L18.18 0.96381C18.2059 0.973452 18.2313 0.984752 18.2559 0.997691L18.3226 1.03823L18.3969 1.09905L18.4565 1.16469L18.4859 1.20556L18.519 1.26168L18.5522 1.33702C18.5652 1.37276 18.5747 1.40893 18.581 1.44514C18.5868 1.47946 18.5898 1.51477 18.5898 1.55078V17.6756L19.7148 17.6758C20.06 17.6758 20.3398 17.9556 20.3398 18.3008C20.3398 18.646 20.06 18.9258 19.7148 18.9258L15.5898 18.9256V20.3008C15.5898 20.646 15.31 20.9258 14.9648 20.9258C14.6197 20.9258 14.3398 20.646 14.3398 20.3008V18.9256H6.33984V20.3008C6.33984 20.646 6.06002 20.9258 5.71484 20.9258C5.36967 20.9258 5.08984 20.646 5.08984 20.3008V18.9256L0.964844 18.9258C0.619666 18.9258 0.339844 18.646 0.339844 18.3008C0.339844 17.9556 0.619666 17.6758 0.964844 17.6758L2.33984 17.6756V14.1856L1.20068 14.6006C0.876317 14.7187 0.517666 14.5515 0.399608 14.2271C0.28155 13.9027 0.448792 13.5441 0.773154 13.426L14.7511 8.33847L14.8491 8.31149C15.1448 8.25544 15.4459 8.42009 15.5522 8.71202C15.5693 8.75924 15.5805 8.80719 15.586 8.85501L15.5898 8.92578V17.6756H17.3398V2.44262L15.2008 3.22162L15.1786 3.23243L1.20068 8.31998C0.876317 8.43804 0.517666 8.2708 0.399608 7.94644C0.28155 7.62208 0.448792 7.26342 0.773154 7.14537L2.33984 6.57462V3.92578C2.33984 3.3735 2.78756 2.92578 3.33984 2.92578H12.3398V2.93262L17.7511 0.963473C17.7868 0.950463 17.823 0.940917 17.8592 0.934665ZM5.08984 13.1846L3.58984 13.7306V17.6756H5.08984V13.1846ZM7.83984 14.4258C7.83984 14.1496 8.0637 13.9258 8.33984 13.9258H9.83984V17.6758H10.8398V13.9258H12.3398C12.616 13.9258 12.8398 14.1496 12.8398 14.4258V17.6758L14.3398 17.6756V9.81762L6.33984 12.7296V17.6756L7.83984 17.6758V14.4258ZM14.8491 5.11256C15.1448 5.05651 15.4459 5.22116 15.5522 5.51309C15.6584 5.80501 15.5336 6.12471 15.2711 6.2718L15.1786 6.31416L1.20068 11.4017C0.876317 11.5198 0.517666 11.3525 0.399608 11.0282C0.28155 10.7038 0.448792 10.3452 0.773154 10.2271L14.7511 5.13954L14.8491 5.11256ZM8.92384 4.17562H3.59484V6.11562L8.92384 4.17562Z" fill="#928B80"/>
</svg>