<svg width="15" height="16" viewBox="0 0 15 16" fill="none" xmlns="http://www.w3.org/2000/svg">
<g id="Vector">
<path fill-rule="evenodd" clip-rule="evenodd" d="M9.02699 5.53228V2.68784C9.02699 2.40768 8.97181 2.13027 8.8646 1.87145C8.75739 1.61262 8.60025 1.37744 8.40215 1.17934C8.20405 0.981245 7.96887 0.824105 7.71004 0.716895C7.45122 0.609685 7.17381 0.554504 6.89365 0.554504L4.04921 6.9545V14.7767H12.0705C12.4135 14.7806 12.7464 14.6604 13.0077 14.4382C13.2691 14.2161 13.4413 13.907 13.4928 13.5678L14.4741 7.16784C14.505 6.964 14.4913 6.75588 14.4338 6.55788C14.3763 6.35989 14.2765 6.17676 14.1412 6.02118C14.0059 5.8656 13.8384 5.7413 13.6503 5.65688C13.4622 5.57246 13.258 5.52995 13.0519 5.53228H9.02699ZM4.04921 14.7767H1.91587C1.53868 14.7767 1.17693 14.6269 0.910212 14.3602C0.643493 14.0934 0.493652 13.7317 0.493652 13.3545V8.37673C0.493652 7.99953 0.643493 7.63778 0.910212 7.37106C1.17693 7.10434 1.53868 6.9545 1.91587 6.9545H4.04921V14.7767Z" fill="#225C4E"/>
<path d="M4.04921 6.9545L6.89365 0.554504C7.17381 0.554504 7.45122 0.609685 7.71004 0.716895C7.96887 0.824105 8.20405 0.981245 8.40215 1.17934C8.60025 1.37744 8.75739 1.61262 8.8646 1.87145C8.97181 2.13027 9.02699 2.40768 9.02699 2.68784V5.53228H13.0519C13.258 5.52995 13.4622 5.57246 13.6503 5.65688C13.8384 5.7413 14.0059 5.8656 14.1412 6.02118C14.2765 6.17676 14.3763 6.35989 14.4338 6.55788C14.4913 6.75588 14.505 6.964 14.4741 7.16784L13.4928 13.5678C13.4413 13.907 13.2691 14.2161 13.0077 14.4382C12.7464 14.6604 12.4135 14.7806 12.0705 14.7767H4.04921M4.04921 6.9545V14.7767M4.04921 6.9545H1.91587C1.53868 6.9545 1.17693 7.10434 0.910212 7.37106C0.643493 7.63778 0.493652 7.99953 0.493652 8.37673V13.3545C0.493652 13.7317 0.643493 14.0934 0.910212 14.3602C1.17693 14.6269 1.53868 14.7767 1.91587 14.7767H4.04921" stroke="#225C4E" stroke-width="0.888889" stroke-linecap="round" stroke-linejoin="round"/>
</g>
</svg>
