<svg width="16" height="16" viewBox="0 0 16 16" fill="none" xmlns="http://www.w3.org/2000/svg">
<path id="Vector" d="M4.4994 7.12449L7.34385 0.724487C7.624 0.724487 7.90141 0.779668 8.16024 0.886878C8.41907 0.994088 8.65424 1.15123 8.85234 1.34933C9.05044 1.54742 9.20758 1.7826 9.31479 2.04143C9.422 2.30026 9.47718 2.57767 9.47718 2.85782V5.70227H13.5021C13.7082 5.69993 13.9124 5.74245 14.1005 5.82686C14.2886 5.91128 14.4561 6.03559 14.5914 6.19116C14.7267 6.34674 14.8265 6.52987 14.884 6.72787C14.9415 6.92586 14.9552 7.13398 14.9243 7.33782L13.943 13.7378C13.8915 14.077 13.7193 14.3861 13.4579 14.6082C13.1966 14.8304 12.8637 14.9506 12.5207 14.9467H4.4994M4.4994 7.12449V14.9467M4.4994 7.12449H2.36607C1.98887 7.12449 1.62713 7.27433 1.36041 7.54105C1.09369 7.80776 0.943848 8.16951 0.943848 8.54671V13.5245C0.943848 13.9017 1.09369 14.2634 1.36041 14.5301C1.62713 14.7969 1.98887 14.9467 2.36607 14.9467H4.4994" stroke="#225C4E" stroke-width="0.888889" stroke-linecap="round" stroke-linejoin="round"/>
</svg>
