<svg width="16" height="16" viewBox="0 0 16 16" fill="none" xmlns="http://www.w3.org/2000/svg">
<path id="Vector" d="M11.6051 8.54672L8.76061 14.9467C8.19482 14.9467 7.6522 14.722 7.25212 14.3219C6.85204 13.9218 6.62728 13.3792 6.62728 12.8134V9.96894H2.60239C2.39623 9.97128 2.19203 9.92876 2.00394 9.84435C1.81584 9.75993 1.64835 9.63562 1.51307 9.48005C1.37778 9.32447 1.27794 9.14134 1.22046 8.94334C1.16298 8.74535 1.14923 8.53722 1.18017 8.33339L2.1615 1.93339C2.21293 1.59426 2.38519 1.28513 2.64655 1.06298C2.9079 0.840834 3.24073 0.720623 3.58372 0.7245H11.6051M11.6051 8.54672V0.7245M11.6051 8.54672H13.5037C13.9062 8.55384 14.2972 8.41294 14.6027 8.15076C14.9081 7.88859 15.1067 7.52339 15.1606 7.1245V2.14672C15.1067 1.74783 14.9081 1.38264 14.6027 1.12046C14.2972 0.858285 13.9062 0.717383 13.5037 0.7245H11.6051" stroke="#225C4E" stroke-width="0.888889" stroke-linecap="round" stroke-linejoin="round"/>
</svg>
