<svg width="27" height="23" viewBox="0 0 27 23" fill="none" xmlns="http://www.w3.org/2000/svg">
<path d="M13.334 7.45516C13.334 7.45516 11.9166 3.81383 16.154 1.31783C16.154 1.31783 19.5966 -0.642174 22.918 2.53116C22.918 2.53116 24.4166 2.46049 26.2233 1.17383C26.2233 1.17383 26.49 2.35783 24.134 4.26183C24.134 4.26183 25.4433 4.15916 26.9313 3.21516C26.9313 3.21516 26.6486 4.84583 24.222 6.02849C24.222 6.02849 24.9606 18.9258 11.9713 21.7485C11.9713 21.7485 5.10198 23.2512 0.264648 19.5738C0.264648 19.5738 5.39665 20.0912 8.12198 17.3205C8.12198 17.3205 4.70198 17.6312 3.01798 13.7205C3.01798 13.7205 4.72731 14.0058 5.42332 13.4618C5.42332 13.4618 1.81532 13.4885 1.01265 8.25649C1.01265 8.25649 2.48331 8.98183 3.44465 8.85249C3.44465 8.85249 -0.639352 6.40716 1.83132 1.63383C1.83132 1.63383 6.38865 7.12449 13.334 7.45516Z" fill="#928B80"/>
</svg>
