<svg width="17" height="21" viewBox="0 0 17 21" fill="none" xmlns="http://www.w3.org/2000/svg">
<path id="Vector" d="M8.98486 0.195557C11.1066 0.195557 13.1414 1.03841 14.6417 2.5387C16.142 4.03899 16.9849 6.07382 16.9849 8.19556C16.9849 11.0056 14.5569 14.9086 9.70086 19.8936C9.60728 19.9884 9.4958 20.0637 9.37289 20.115C9.24998 20.1664 9.11808 20.1929 8.98486 20.1929C8.85164 20.1929 8.71975 20.1664 8.59684 20.115C8.47393 20.0637 8.36244 19.9884 8.26886 19.8936C3.41286 14.9086 0.984863 11.0066 0.984863 8.19556C0.984863 6.07382 1.82772 4.03899 3.32801 2.5387C4.8283 1.03841 6.86313 0.195557 8.98486 0.195557ZM8.98486 2.19556C7.39356 2.19556 5.86744 2.8277 4.74222 3.95292C3.617 5.07813 2.98486 6.60426 2.98486 8.19556C2.98486 10.2086 4.95286 13.4776 8.98486 17.7476C13.0169 13.4776 14.9849 10.2086 14.9849 8.19556C14.9849 6.60426 14.3527 5.07813 13.2275 3.95292C12.1023 2.8277 10.5762 2.19556 8.98486 2.19556ZM8.98486 6.69556C9.38269 6.69556 9.76422 6.85359 10.0455 7.1349C10.3268 7.4162 10.4849 7.79773 10.4849 8.19556C10.4849 8.59338 10.3268 8.97491 10.0455 9.25622C9.76422 9.53752 9.38269 9.69556 8.98486 9.69556C8.58704 9.69556 8.20551 9.53752 7.9242 9.25622C7.6429 8.97491 7.48486 8.59338 7.48486 8.19556C7.48486 7.79773 7.6429 7.4162 7.9242 7.1349C8.20551 6.85359 8.58704 6.69556 8.98486 6.69556Z" fill="#616161"/>
</svg>