<svg width="11" height="11" viewBox="0 0 11 11" fill="none" xmlns="http://www.w3.org/2000/svg">
<path d="M6.42122 5.20157L9.71822 1.90557C9.81373 1.81332 9.88991 1.70298 9.94232 1.58097C9.99473 1.45897 10.0223 1.32775 10.0235 1.19497C10.0246 1.06219 9.99932 0.93051 9.94904 0.807613C9.89876 0.684717 9.82451 0.573065 9.73061 0.479173C9.63672 0.38528 9.52507 0.311027 9.40217 0.260746C9.27927 0.210465 9.1476 0.185163 9.01482 0.186317C8.88204 0.187471 8.75082 0.215057 8.62881 0.267466C8.50681 0.319875 8.39646 0.396058 8.30422 0.491568L5.00722 3.78657L1.72222 0.491568C1.62997 0.396058 1.51963 0.319875 1.39762 0.267466C1.27562 0.215057 1.1444 0.187471 1.01162 0.186317C0.87884 0.185163 0.74716 0.210465 0.624264 0.260746C0.501367 0.311027 0.389715 0.38528 0.295823 0.479173C0.20193 0.573065 0.127677 0.684717 0.077396 0.807613C0.0271151 0.93051 0.00181363 1.06219 0.00296744 1.19497C0.00412126 1.32775 0.0317075 1.45897 0.0841165 1.58097C0.136526 1.70298 0.212708 1.81332 0.308218 1.90557L3.59322 5.20057L0.308218 8.48857C0.120577 8.67608 0.015109 8.93044 0.0150152 9.19571C0.0149214 9.46099 0.12021 9.71543 0.307718 9.90307C0.495226 10.0907 0.749594 10.1962 1.01486 10.1963C1.28013 10.1964 1.53458 10.0911 1.72222 9.90357L5.00722 6.61457L8.30422 9.90357C8.49186 10.0911 8.7463 10.1964 9.01157 10.1963C9.27684 10.1962 9.53121 10.0907 9.71872 9.90307C9.90623 9.71543 10.0115 9.46099 10.0114 9.19571C10.0113 8.93044 9.90586 8.67608 9.71822 8.48857L6.42122 5.20157Z" fill="#928B80"/>
</svg>
