<svg width="27" height="19" viewBox="0 0 27 19" fill="none" xmlns="http://www.w3.org/2000/svg">
<path d="M22.9095 0.352246C22.9095 0.352246 25.1975 0.432246 26.0921 2.13358C26.0921 2.13358 26.9855 3.36691 26.9855 9.38558V9.44025C26.9908 9.90958 27.0095 13.2536 26.6161 15.0922C26.1921 17.0722 25.2561 17.6522 25.2561 17.6522C25.2561 17.6522 24.6561 18.2296 23.3321 18.3869C22.0081 18.5456 17.7148 18.7189 13.6348 18.7189C13.6348 18.7189 6.16413 18.7149 3.64813 18.3016C1.22146 17.9042 0.808131 15.7202 0.781465 15.5656L0.768131 15.4856C0.656131 14.8002 -0.185202 9.24158 0.778798 3.22158C0.778798 3.22158 1.07746 0.653579 4.08413 0.352246C4.08413 0.352246 7.1748 0.0682461 13.1441 0.0522461H13.6348C19.9241 0.0522461 22.9095 0.352246 22.9095 0.352246ZM10.8881 5.57625V12.9029L18.1801 9.24025L10.8881 5.57625Z" fill="#928B80"/>
</svg>
